<?xml version="1.0" standalone="no"?>
<!DOCTYPE svg PUBLIC "-//W3C//DTD SVG 20010904//EN"
 "http://www.w3.org/TR/2001/REC-SVG-20010904/DTD/svg10.dtd">
<svg version="1.0" xmlns="http://www.w3.org/2000/svg"
 width="3240.000000pt" height="1080.000000pt" viewBox="0 0 3240.000000 1080.000000"
 preserveAspectRatio="xMidYMid meet">

<g transform="translate(0.000000,1080.000000) scale(0.100000,-0.100000)"
fill="#000000" stroke="none">
<path d="M19525 8013 c-411 -34 -770 -151 -1061 -344 -142 -95 -334 -284 -423
-419 -243 -368 -333 -844 -256 -1360 36 -234 165 -516 328 -713 100 -121 265
-264 406 -352 68 -42 269 -145 283 -145 7 0 31 -9 53 -19 45 -21 152 -58 205
-71 79 -18 197 -42 230 -45 19 -2 53 -7 75 -11 22 -4 51 -9 65 -10 38 -6 360
-4 400 1 126 18 190 27 225 35 62 14 95 20 97 20 22 -3 325 117 419 165 16 9
31 15 34 15 3 -1 17 8 32 20 14 11 31 20 37 20 6 0 38 17 71 38 41 25 71 37
95 36 67 -1 72 -6 111 -116 19 -54 47 -95 68 -99 37 -8 76 -10 191 -11 156 -1
242 8 281 28 16 8 39 14 54 14 l25 0 0 849 0 850 -29 20 c-29 21 -36 21 -874
21 l-846 0 -23 -32 c-26 -37 -25 -25 -14 -378 3 -102 8 -195 11 -207 10 -42
138 -82 318 -98 34 -4 82 -8 107 -11 25 -3 86 -7 135 -9 90 -5 191 -23 181
-32 -3 -3 2 -12 10 -20 13 -13 10 -20 -17 -55 -104 -131 -327 -252 -554 -300
-121 -25 -341 -30 -455 -9 -304 55 -538 209 -653 430 -138 263 -172 630 -86
906 116 371 344 570 744 650 82 16 255 16 365 0 120 -17 298 -71 325 -99 9 -9
20 -16 25 -16 14 0 97 -59 147 -104 47 -43 133 -148 133 -163 0 -5 14 -28 30
-51 31 -41 52 -53 100 -58 14 -1 25 -3 25 -4 0 -4 95 -9 225 -13 187 -5 430
18 513 49 20 8 54 14 73 14 l36 0 -7 48 c-3 26 -20 88 -36 137 -180 541 -760
941 -1459 1004 -105 10 -399 12 -495 4z"/>
<path d="M23625 8014 c-118 -12 -322 -50 -431 -80 -862 -236 -1380 -880 -1340
-1664 20 -385 120 -711 300 -975 103 -152 320 -354 491 -457 132 -80 363 -188
402 -188 7 0 21 -4 31 -9 24 -14 135 -47 207 -62 33 -7 67 -14 75 -16 172 -39
531 -59 720 -41 135 13 215 24 215 28 0 1 14 4 30 6 56 8 210 45 250 61 22 8
50 17 61 19 12 2 35 11 50 19 16 8 36 15 45 15 39 0 373 184 451 249 177 147
254 233 382 427 57 86 142 276 161 361 2 10 15 61 29 115 40 156 49 267 43
496 -4 169 -10 229 -31 323 -159 739 -710 1220 -1551 1355 -96 15 -496 27
-590 18z m435 -764 c201 -42 409 -148 528 -271 173 -178 271 -429 272 -700 1
-350 -147 -651 -405 -829 -181 -125 -446 -186 -694 -161 -361 36 -597 163
-754 406 -122 190 -184 462 -159 696 16 149 101 376 175 470 12 15 40 51 62
80 45 58 170 166 230 198 22 12 47 25 55 31 65 40 231 84 360 96 41 3 76 7 77
8 5 5 205 -14 253 -24z"/>
<path d="M27315 7998 c-219 -24 -473 -94 -654 -179 -276 -130 -483 -331 -566
-553 -43 -114 -57 -192 -57 -326 -1 -104 4 -144 26 -235 15 -61 34 -120 42
-132 8 -12 14 -28 14 -35 0 -20 76 -132 123 -182 60 -64 161 -137 257 -187 26
-14 115 -53 125 -55 6 -1 24 -8 40 -15 17 -7 34 -11 38 -11 4 1 20 -4 35 -12
22 -11 208 -54 302 -70 14 -2 41 -7 60 -10 63 -10 104 -16 145 -21 57 -7 196
-25 224 -30 14 -2 54 -7 90 -10 36 -3 93 -11 126 -16 33 -6 74 -13 90 -15 34
-4 101 -14 130 -20 11 -3 36 -7 55 -10 19 -3 43 -10 53 -15 9 -5 17 -8 17 -5
0 3 16 -2 35 -10 20 -8 40 -12 45 -9 6 4 10 2 10 -3 0 -5 20 -15 45 -22 24 -7
50 -19 56 -26 6 -8 17 -14 23 -14 19 0 106 -92 122 -128 24 -59 18 -113 -19
-165 -96 -135 -290 -213 -562 -224 -341 -14 -636 81 -799 258 -54 59 -108 154
-121 217 l-7 32 -443 0 c-395 0 -444 -2 -449 -16 -38 -100 98 -501 223 -658
53 -66 209 -206 229 -206 6 0 12 -3 14 -8 15 -36 297 -176 453 -225 77 -24
207 -58 238 -62 15 -2 31 -6 35 -9 5 -3 29 -7 54 -10 26 -3 62 -8 80 -11 370
-55 802 -31 1107 61 31 10 59 17 63 16 23 -5 307 124 384 176 136 89 256 197
312 277 15 22 29 42 32 45 17 15 72 127 103 211 54 145 70 248 64 409 -8 234
-65 371 -216 520 -155 153 -368 251 -696 319 -174 35 -543 89 -730 106 -375
33 -585 86 -678 174 -46 42 -57 71 -46 119 17 77 68 162 98 162 6 0 11 5 11
11 0 6 7 17 15 25 8 9 15 13 15 10 0 -3 15 3 34 13 18 11 42 24 52 30 27 14
147 51 186 57 83 12 119 14 203 13 50 -1 105 -2 123 -2 17 0 32 -4 32 -8 0 -5
6 -6 13 -3 13 5 155 -33 212 -57 17 -7 32 -13 35 -14 21 -7 46 -20 50 -25 3
-3 25 -20 50 -37 64 -44 99 -83 150 -170 52 -88 86 -111 183 -123 98 -12 360
-9 497 6 148 16 149 17 177 32 12 7 35 12 50 12 16 0 34 5 41 12 42 42 -43
329 -142 476 -207 310 -635 524 -1174 587 -139 16 -456 18 -587 3z"/>
<path d="M9890 7910 c-20 -20 -20 -23 -20 -1634 l0 -1614 34 -30 c21 -18 51
-33 78 -37 24 -4 52 -9 63 -11 11 -2 106 -6 210 -9 219 -4 365 11 442 47 l48
23 5 490 c6 518 7 533 54 581 35 35 84 46 240 50 151 5 234 -5 288 -32 36 -18
89 -75 146 -154 25 -36 55 -77 66 -91 12 -14 28 -36 36 -49 8 -13 24 -35 35
-49 11 -14 29 -39 41 -56 11 -16 41 -59 66 -95 74 -106 192 -278 263 -382 87
-128 180 -245 205 -258 33 -18 135 -25 330 -23 178 1 223 4 320 18 25 3 60 8
79 11 19 2 41 10 49 17 8 6 17 11 19 10 1 -2 27 -3 56 -3 46 0 55 3 66 24 10
18 10 28 1 46 -6 12 -157 243 -334 514 -398 607 -386 589 -386 613 0 11 10 29
23 40 20 19 221 141 274 167 13 6 23 14 23 19 0 4 6 7 13 7 24 0 172 153 219
226 60 93 74 123 113 236 46 134 59 224 52 366 -7 144 -32 242 -98 381 -147
309 -421 540 -744 628 l-100 28 -1127 3 c-1123 3 -1127 3 -1148 -18z m1868
-664 c48 -13 94 -25 102 -27 8 -2 28 -12 45 -21 16 -10 48 -27 70 -39 116 -63
218 -222 209 -325 -11 -126 -95 -234 -231 -301 l-78 -38 -534 -3 c-404 -2
-537 0 -548 9 -12 10 -14 63 -11 333 3 314 4 322 25 352 23 32 74 62 119 70
13 2 36 6 52 9 15 3 108 8 207 12 99 3 181 6 182 7 1 1 69 -2 153 -7 105 -5
177 -15 238 -31z"/>
<path d="M2094 7885 c-15 -23 -14 -28 26 -117 61 -137 163 -374 190 -443 13
-33 43 -100 66 -150 23 -49 67 -146 99 -215 67 -145 96 -208 159 -343 25 -55
46 -100 46 -102 0 -1 24 -54 54 -116 29 -63 64 -136 76 -164 27 -60 83 -181
115 -250 13 -27 29 -61 34 -75 6 -14 15 -32 20 -40 12 -19 71 -149 71 -156 0
-2 26 -59 59 -127 87 -181 121 -254 121 -260 0 -3 30 -67 66 -143 91 -192 119
-253 137 -295 29 -65 74 -163 117 -254 23 -49 50 -109 60 -131 16 -36 94 -203
276 -592 24 -51 44 -95 44 -97 0 -3 37 -83 115 -250 13 -27 38 -81 55 -120 36
-80 138 -284 166 -332 26 -45 64 -60 169 -68 50 -4 95 -10 100 -13 10 -6 1100
-6 8815 4 2313 3 4212 5 4220 5 8 0 499 0 1090 0 1281 -1 2200 5 2290 14 93 9
204 33 208 45 2 5 15 10 28 10 l24 0 0 308 c0 287 -1 310 -18 325 -17 16 -600
17 -8183 17 l-8164 0 -853 1983 c-469 1090 -868 2014 -887 2054 -56 120 -21
113 -547 113 l-448 0 -16 -25z"/>
<path d="M6730 7673 c-1 -449 21 -2778 26 -2910 6 -131 6 -133 29 -133 13 0
26 -4 29 -9 8 -13 136 -36 247 -44 25 -2 50 -6 55 -9 13 -7 2158 -1 2219 6 28
3 73 8 100 11 122 11 148 23 176 77 31 60 36 219 15 463 -9 105 -16 196 -16
203 0 9 -224 12 -967 14 l-967 3 -19 32 c-22 38 -24 85 -12 268 4 78 14 145
23 167 14 32 23 38 72 51 97 26 155 29 710 33 300 2 556 6 569 8 13 3 56 8 95
11 125 10 170 23 205 59 55 57 61 159 30 524 l-12 132 -671 0 c-369 0 -749 3
-843 7 l-173 6 0 165 c0 91 5 194 11 229 9 53 16 67 43 86 17 12 32 21 34 19
1 -1 3 -2 5 -1 53 16 191 21 747 24 503 2 751 9 811 20 10 2 46 6 80 10 83 8
132 31 154 70 15 29 16 63 13 318 -3 263 -4 287 -22 306 l-19 21 -1389 0
-1388 0 0 -237z"/>
<path d="M13142 7887 c-22 -23 -22 -28 -22 -338 l1 -314 25 -18 c13 -10 32
-20 42 -21 82 -16 176 -21 592 -31 107 -3 227 -7 265 -9 71 -4 159 -28 180
-50 11 -11 26 -58 26 -81 0 -5 -3 -99 -7 -209 -4 -109 -1 -461 7 -785 8 -322
13 -750 11 -949 -1 -230 2 -378 8 -403 11 -39 15 -42 102 -77 39 -16 181 -27
343 -27 175 0 284 11 351 36 92 35 83 -95 86 1235 3 1347 -4 1240 89 1281 62
28 106 32 434 38 143 2 283 7 310 11 28 3 86 7 130 9 117 5 167 13 185 30 9 8
22 15 28 15 9 0 12 82 12 318 l0 319 -23 21 -23 22 -1565 0 -1566 0 -21 -23z"/>
<path d="M16582 7894 l-22 -15 0 -1607 c1 -1247 3 -1611 13 -1623 20 -26 116
-56 202 -64 44 -4 89 -9 100 -12 30 -6 246 -5 301 2 212 26 206 25 258 51 l41
21 3 1614 2 1614 -21 18 c-19 16 -56 17 -438 17 -361 0 -420 -2 -439 -16z"/>
<path d="M5785 7889 c-159 -3 -317 -7 -350 -8 l-60 -1 -36 -88 c-20 -48 -226
-540 -458 -1094 -333 -798 -421 -1016 -421 -1050 0 -25 13 -78 31 -123 17 -44
37 -100 44 -125 52 -177 244 -614 339 -769 12 -20 46 -84 75 -143 44 -89 58
-108 76 -108 17 0 26 11 40 48 10 26 61 144 113 262 52 118 109 251 127 295
18 44 70 170 115 280 116 282 144 348 183 445 19 47 56 137 82 200 26 63 67
165 92 225 25 61 61 148 80 195 19 47 48 119 65 160 16 41 40 100 53 130 12
30 35 84 50 120 14 36 31 74 36 85 21 45 155 382 219 550 37 99 96 249 130
334 l62 155 -24 18 c-26 20 -98 21 -663 7z"/>
<path d="M22645 4044 c-86 -19 -199 -70 -248 -114 -138 -121 -135 -342 5 -451
24 -19 45 -37 48 -41 9 -11 152 -66 190 -72 19 -3 53 -11 75 -17 22 -5 47 -10
55 -10 8 -1 22 -3 30 -7 8 -3 24 -6 35 -7 11 -1 34 -4 50 -8 17 -4 44 -9 60
-12 44 -9 46 -9 97 -34 63 -30 81 -53 81 -100 0 -72 -50 -117 -158 -146 -166
-43 -360 5 -420 104 -11 18 -34 49 -50 68 -27 30 -37 35 -90 40 -42 4 -71 1
-98 -10 -34 -15 -37 -19 -37 -55 0 -87 96 -208 212 -264 128 -63 216 -80 403
-80 107 0 142 4 198 22 37 12 67 26 67 31 0 5 4 8 9 6 16 -4 137 92 164 130
74 108 76 252 3 348 -58 76 -190 130 -386 160 -370 55 -399 70 -388 200 8 95
78 145 213 153 155 8 269 -33 334 -122 45 -60 78 -76 163 -76 38 0 50 5 66 25
52 65 -46 218 -184 288 -112 57 -358 82 -499 51z"/>
<path d="M23742 4013 c-11 -27 -8 -151 3 -162 7 -7 88 -11 209 -11 109 -1 195
-4 192 -7 -3 -3 4 -13 14 -22 19 -15 20 -33 23 -481 l2 -465 118 -3 117 -3 0
466 c0 449 1 466 19 482 11 9 18 20 15 24 -2 4 80 8 183 9 152 1 191 4 203 16
10 10 16 41 18 94 l4 80 -556 0 c-521 0 -557 -1 -564 -17z"/>
<path d="M25207 4024 c-10 -11 25 -86 77 -164 27 -41 116 -163 197 -272 81
-108 160 -218 176 -245 l28 -48 -3 -217 -2 -216 36 -12 c23 -8 63 -10 103 -7
110 9 101 -14 101 249 0 185 3 236 15 261 8 18 72 109 142 202 227 304 303
420 303 460 0 17 -27 19 -158 8 l-83 -6 -136 -204 c-74 -113 -153 -223 -174
-246 l-39 -40 -26 24 c-15 13 -82 108 -150 210 -67 102 -143 204 -168 227
l-46 42 -93 0 c-52 0 -96 -3 -100 -6z"/>
<path d="M26831 4016 c-7 -8 -12 -30 -11 -48 0 -18 2 -269 3 -558 1 -378 5
-531 14 -545 20 -36 111 -48 290 -41 87 4 169 8 183 10 14 2 119 4 233 5 l208
1 15 35 c18 44 18 96 -1 142 l-15 36 -153 -7 c-83 -3 -208 -9 -277 -12 -107
-5 -232 4 -247 19 -2 2 -8 204 -14 448 -5 244 -12 463 -15 487 l-5 42 -98 0
c-73 0 -102 -4 -110 -14z"/>
<path d="M28197 4023 c-11 -10 -8 -92 4 -159 8 -43 8 -153 -1 -414 -13 -373
-5 -569 22 -596 7 -7 27 -15 45 -17 17 -3 37 -8 44 -12 14 -9 393 -8 429 1 14
4 113 8 220 11 235 5 230 3 230 119 l0 74 -365 0 -365 0 -17 27 c-13 19 -19
52 -22 109 -5 126 -1 128 258 159 24 2 49 8 55 13 6 5 27 9 46 10 295 12 300
13 317 38 24 38 12 112 -23 142 -25 22 -33 24 -88 17 -127 -15 -245 -22 -351
-21 -127 2 -176 19 -202 70 -31 60 -11 249 26 245 9 -1 163 -1 343 0 l328 1
16 25 c25 38 30 109 10 140 l-16 25 -469 0 c-257 0 -471 -3 -474 -7z"/>
<path d="M1400 1245 c0 -2 14 -11 30 -20 17 -9 30 -14 30 -12 0 3 19 1 43 -4
23 -4 87 -12 142 -16 133 -11 28937 -10 29040 0 120 13 126 14 174 25 24 6 48
15 54 21 8 8 -4188 11 -14751 11 -8119 0 -14762 -2 -14762 -5z"/>
</g>
</svg>
